<svg width="102" height="87" viewBox="0 0 102 87" fill="none" xmlns="http://www.w3.org/2000/svg">
<g clip-path="url(#clip0)">
<path fill-rule="evenodd" clip-rule="evenodd" d="M13.4043 36.0208L21.1342 63.5008L31.3804 63.5983L39.4256 35.9776L39.5727 63.6199L46.6174 63.5939L58.4321 22.7056L32.3765 22.6258C31.9008 25.303 26.9085 44.4055 26.1868 45.5763C25.3036 44.0481 21.4688 25.8698 20.7775 22.613L11.5056 22.9222L11.6417 28.7033L12.4043 29.3133L12.6333 34.4323L13.4043 36.0208Z" fill="white"/>
<path fill-rule="evenodd" clip-rule="evenodd" d="M71.6664 33.086C76.3502 32.9796 82.9369 32.2072 85.393 36.12C87.5079 39.4921 88.6012 49.6946 81.7833 51.9823C79.3355 52.8029 74.075 52.9176 71.323 52.3957C71.2085 52.0173 71.0896 34.5055 71.6664 33.086ZM50.8017 63.436C54.777 63.8255 78.7006 63.529 83.3213 63.2221C101.276 62.0248 106.502 38.2909 96.8687 28.9238C88.1732 20.4699 74.5268 23.0995 62.6512 22.6973L50.8017 63.436Z" fill="white"/>
<path fill-rule="evenodd" clip-rule="evenodd" d="M71.662 32.7806C72.1935 32.7679 72.7703 32.7463 73.3621 32.7247C77.8965 32.5557 83.3861 32.3523 85.6502 35.9576C86.0082 36.5536 86.2961 37.1891 86.508 37.8514C87.2586 40.1856 87.485 42.6571 87.1711 45.0892C86.8083 47.6733 85.7171 50.1084 83.4812 51.5169C82.9787 51.8316 82.4407 52.0853 81.8785 52.2726C80.2501 52.7245 78.5706 52.9652 76.8811 52.989C75.0045 53.0862 73.1229 52.9876 71.2666 52.6948L71.083 52.6599L71.0288 52.4848C70.9558 52.2355 70.8712 45.1734 70.9707 39.6266C71.0288 36.3261 71.1543 33.5358 71.3833 32.9712L71.4613 32.7851L71.662 32.7806ZM73.3837 33.3347C72.8782 33.3518 72.3838 33.3713 71.8976 33.3846C71.6723 35.4602 71.5663 37.5471 71.5802 39.635C71.4889 44.7063 71.5365 51.0044 71.5996 52.1341C73.3404 52.3846 75.1013 52.4671 76.8579 52.3806C78.4899 52.3578 80.1124 52.1266 81.686 51.6925C82.202 51.5207 82.6958 51.2882 83.1571 50.9999C85.2183 49.7012 86.227 47.4268 86.566 45.0066C86.8692 42.668 86.6524 40.2912 85.9312 38.0465C85.7352 37.4291 85.4676 36.837 85.1337 36.2823C83.0575 32.9734 77.7605 33.1723 73.3837 33.3347ZM51.1994 63.1633C53.3231 63.3107 58.8364 63.3406 64.7512 63.3018C72.4159 63.2519 80.7657 63.0852 83.302 62.9168C87.8117 62.6693 92.0606 60.7206 95.1947 57.4625C97.3804 55.1612 99.0333 52.4057 100.036 49.392C101.048 46.425 101.468 43.2879 101.274 40.1586C100.991 35.869 99.4675 31.8758 96.6569 29.1426C89.917 22.5892 80.0916 22.7881 70.4719 22.9826C67.9052 23.0346 65.354 23.0867 62.878 23.0108L51.1994 63.1633ZM64.7534 63.9102C58.4365 63.9534 52.5753 63.9163 50.7735 63.739L50.4085 63.7046C54.4076 49.9306 58.4129 36.1575 62.4245 22.3853L62.6601 22.3941C65.2003 22.4783 67.8233 22.4268 70.4586 22.3725C80.206 22.1753 90.1586 21.9741 97.0806 28.7055C100.008 31.5489 101.589 35.685 101.883 40.122C102.082 43.3304 101.65 46.5468 100.613 49.5887C99.5829 52.6887 97.8817 55.5224 95.631 57.887C92.393 61.2552 88.0015 63.2695 83.3407 63.5246C80.8066 63.6935 72.4418 63.8603 64.7534 63.9102Z" fill="white"/>
<path d="M71.662 32.7806C72.1935 32.7679 72.7703 32.7463 73.3621 32.7247C77.8965 32.5557 83.3861 32.3523 85.6502 35.9576C86.0082 36.5536 86.2961 37.1891 86.508 37.8514C87.2586 40.1856 87.485 42.6571 87.1711 45.0892C86.8083 47.6733 85.7171 50.1084 83.4812 51.5169C82.9787 51.8316 82.4407 52.0853 81.8785 52.2726C80.2501 52.7245 78.5706 52.9652 76.8811 52.989C75.0045 53.0862 73.1229 52.9876 71.2666 52.6948L71.083 52.6599L71.0288 52.4848C70.9558 52.2355 70.8712 45.1734 70.9707 39.6266C71.0288 36.3261 71.1543 33.5358 71.3833 32.9712L71.4613 32.7851L71.662 32.7806ZM73.3837 33.3347C72.8782 33.3518 72.3838 33.3713 71.8976 33.3846C71.6723 35.4602 71.5663 37.5471 71.5802 39.635C71.4889 44.7063 71.5365 51.0044 71.5996 52.1341C73.3404 52.3846 75.1013 52.4671 76.8579 52.3806C78.4899 52.3578 80.1124 52.1266 81.686 51.6925C82.202 51.5207 82.6957 51.2882 83.1571 50.9999C85.2183 49.7012 86.227 47.4268 86.566 45.0066C86.8692 42.668 86.6524 40.2912 85.9312 38.0465C85.7352 37.4291 85.4676 36.837 85.1337 36.2823C83.0575 32.9734 77.7605 33.1723 73.3837 33.3347ZM51.1994 63.1633C53.3231 63.3107 58.8364 63.3406 64.7512 63.3018C72.4159 63.2519 80.7657 63.0852 83.302 62.9168C87.8117 62.6693 92.0606 60.7206 95.1947 57.4625C97.3804 55.1612 99.0333 52.4057 100.036 49.392C101.048 46.425 101.468 43.2879 101.274 40.1586C100.991 35.869 99.4675 31.8758 96.6569 29.1426C89.917 22.5892 80.0916 22.7881 70.4719 22.9826C67.9052 23.0346 65.354 23.0867 62.878 23.0108L51.1994 63.1633ZM64.7534 63.9102C58.4365 63.9534 52.5753 63.9163 50.7735 63.739L50.4085 63.7046C54.4076 49.9306 58.4129 36.1575 62.4245 22.3853L62.6601 22.3941C65.2003 22.4783 67.8233 22.4268 70.4586 22.3725C80.206 22.1753 90.1586 21.9741 97.0806 28.7055C100.008 31.5489 101.589 35.685 101.883 40.122C102.082 43.3304 101.65 46.5468 100.613 49.5887C99.5829 52.6887 97.8817 55.5224 95.631 57.887C92.393 61.2552 88.0016 63.2695 83.3407 63.5246C80.8066 63.6935 72.4418 63.8603 64.7534 63.9102V63.9102Z" stroke="white" stroke-width="0.2398" stroke-miterlimit="10.433"/>
<path fill-rule="evenodd" clip-rule="evenodd" d="M5.89943 79.0838C7.73554 78.7852 10.3736 78.6793 10.2867 80.7355C10.2027 82.7805 7.50216 82.4774 5.82146 82.1988L5.89943 79.0838ZM5.97519 72.2145C8.35771 72.2256 8.23051 71.9829 9.72761 73.0844L9.39689 74.9283C8.21282 75.5455 7.4828 75.3876 5.82367 75.3378L5.97519 72.2145ZM12.6355 76.7728C13.4712 75.6342 14.7111 74.7272 14.5253 72.5065C14.0613 66.9509 6.97289 68.4918 0.824692 68.3882L0.902666 86.4013C3.92506 86.3886 11.2291 87.0031 13.3611 85.3453C14.03 84.8167 14.5538 84.1265 14.8833 83.3394C15.2128 82.5523 15.3372 81.6942 15.2448 80.8457C15.0551 78.0843 12.8988 77.277 12.8103 76.939C12.7799 76.8332 12.6914 76.831 12.6355 76.7728Z" fill="white"/>
<path fill-rule="evenodd" clip-rule="evenodd" d="M5.84965 78.7831C6.84834 78.5876 7.87347 78.5687 8.87867 78.7272C9.90015 78.9521 10.6412 79.5278 10.5915 80.7462C10.5417 81.9584 9.7359 82.4715 8.70116 82.64C7.72319 82.7423 6.73538 82.6948 5.77168 82.4992L5.51063 82.456L5.60133 78.8247L5.84965 78.7831ZM8.74872 79.3267C7.9025 79.1889 7.03907 79.1962 6.1953 79.3483L6.13281 81.9391C6.94733 82.0921 7.77981 82.1249 8.60382 82.0366C9.36039 81.9153 9.94771 81.5557 9.98255 80.7223C10.0168 79.8874 9.48316 79.4868 8.74872 79.3267ZM5.97519 71.9094C6.39384 71.9116 6.73729 71.905 7.02487 71.9011C8.45284 71.875 8.59552 71.8728 9.90679 72.8402L10.06 72.9527L9.6712 75.1324L9.53736 75.1994C8.47219 75.7557 7.76374 75.7252 6.53433 75.6709L5.50621 75.6344L5.68319 71.9072L5.97519 71.9094ZM7.03372 72.5089L6.26444 72.52L6.14332 75.0432L6.56032 75.0609C7.63212 75.1086 8.26922 75.1363 9.12478 74.7229L9.39246 73.2186C8.38592 72.4873 8.21723 72.4895 7.03372 72.5089ZM12.3889 76.5907C12.5575 76.3635 12.7345 76.1513 12.912 75.9397C13.6205 75.0908 14.3616 74.2038 14.2211 72.5327C13.871 68.3235 9.28904 68.4725 4.39349 68.6327C3.30896 68.6698 2.2095 68.7063 1.13162 68.6952L1.20517 86.0968C1.73831 86.1007 2.37155 86.1184 3.06728 86.1378C6.51056 86.2353 11.5377 86.376 13.1731 85.1056C13.7901 84.6273 14.2731 83.9972 14.5751 83.2766C14.8849 82.5137 15.01 81.6881 14.9401 80.8675C14.8956 80.1988 14.6969 79.5497 14.3596 78.971C14.0223 78.3923 13.5556 77.8999 12.9961 77.5326C12.8093 77.4182 12.6517 77.2617 12.536 77.0755C12.4909 77.0511 12.45 77.0197 12.4149 76.9824L12.2401 76.7968L12.3889 76.5907ZM13.3805 76.3314L13.052 76.7292C13.074 76.7713 13.0914 76.8157 13.1039 76.8616C13.1084 76.881 13.2079 76.9264 13.3677 77.0478C13.9989 77.4651 14.5245 78.0238 14.9031 78.6796C15.2818 79.3354 15.503 80.0703 15.5495 80.8265C15.6239 81.7417 15.4834 82.6616 15.1392 83.5126C14.7963 84.3307 14.2478 85.0457 13.5469 85.5881C11.7429 86.9927 6.5841 86.8475 3.0518 86.7478C2.21836 86.724 1.47727 86.7046 0.904869 86.7068H0.600144C0.571939 80.4974 0.545214 74.288 0.519958 68.0786L0.829105 68.083C1.98939 68.1024 3.19227 68.0636 4.37413 68.0243C9.56999 67.8536 14.4307 67.6935 14.83 72.4828C14.9898 74.4027 14.1669 75.3895 13.3805 76.3314Z" fill="white"/>
<path d="M5.84965 78.7831C6.84834 78.5876 7.87347 78.5687 8.87867 78.7272C9.90015 78.9521 10.6412 79.5278 10.5915 80.7462C10.5417 81.9584 9.7359 82.4715 8.70116 82.64C7.72319 82.7423 6.73538 82.6948 5.77168 82.4992L5.51063 82.456L5.60133 78.8247L5.84965 78.7831ZM8.74872 79.3267C7.9025 79.1889 7.03907 79.1962 6.1953 79.3483L6.13281 81.9391C6.94733 82.0921 7.77981 82.1249 8.60382 82.0366C9.36039 81.9153 9.94771 81.5557 9.98255 80.7223C10.0168 79.8874 9.48316 79.4868 8.74872 79.3267V79.3267ZM5.97519 71.9094C6.39384 71.9116 6.73729 71.905 7.02487 71.9011C8.45284 71.875 8.59552 71.8728 9.90679 72.8402L10.06 72.9527L9.6712 75.1324L9.53736 75.1994C8.47219 75.7557 7.76374 75.7252 6.53433 75.6709L5.50621 75.6344L5.68319 71.9072L5.97519 71.9094ZM7.03372 72.5089L6.26444 72.52L6.14332 75.0432L6.56032 75.0609C7.63212 75.1086 8.26922 75.1363 9.12478 74.7229L9.39246 73.2186C8.38592 72.4873 8.21723 72.4895 7.03372 72.5089ZM12.3889 76.5907C12.5575 76.3635 12.7345 76.1513 12.912 75.9397C13.6205 75.0908 14.3616 74.2038 14.2211 72.5327C13.871 68.3235 9.28904 68.4725 4.39349 68.6327C3.30896 68.6698 2.2095 68.7063 1.13162 68.6952L1.20517 86.0968C1.73831 86.1007 2.37155 86.1184 3.06728 86.1378C6.51056 86.2353 11.5377 86.376 13.1731 85.1056C13.7901 84.6273 14.2731 83.9972 14.5751 83.2766C14.8849 82.5137 15.01 81.6881 14.9401 80.8675C14.8956 80.1988 14.6969 79.5497 14.3596 78.971C14.0223 78.3923 13.5556 77.8999 12.9961 77.5326C12.8093 77.4182 12.6517 77.2617 12.536 77.0755C12.4909 77.0511 12.45 77.0197 12.4149 76.9824L12.2401 76.7968L12.3889 76.5907ZM13.3805 76.3314L13.052 76.7292C13.074 76.7713 13.0914 76.8157 13.1039 76.8616C13.1084 76.881 13.2079 76.9264 13.3677 77.0478C13.9989 77.4651 14.5245 78.0238 14.9031 78.6796C15.2818 79.3354 15.503 80.0703 15.5495 80.8265C15.6239 81.7417 15.4834 82.6616 15.1392 83.5126C14.7963 84.3307 14.2478 85.0457 13.5469 85.5881C11.7429 86.9927 6.5841 86.8475 3.0518 86.7478C2.21836 86.724 1.47727 86.7046 0.904869 86.7068H0.600144C0.571939 80.4974 0.545214 74.288 0.519958 68.0786L0.829106 68.083C1.98939 68.1024 3.19227 68.0636 4.37413 68.0243C9.56999 67.8536 14.4307 67.6935 14.83 72.4828C14.9898 74.4027 14.1669 75.3895 13.3805 76.3314V76.3314Z" stroke="white" stroke-width="0.2398" stroke-miterlimit="10.433"/>
<path fill-rule="evenodd" clip-rule="evenodd" d="M90.7592 72.3203C92.0771 72.143 94.1013 71.8853 94.6847 73.342C95.0066 74.147 94.6394 74.4069 94.4342 75.3787L90.6619 75.5278L90.7592 72.3203ZM97.1756 78.1596C100.915 75.1687 100.394 71.472 98.1822 69.5239C96.0369 67.6346 88.9574 68.4507 85.6828 68.3881L85.7536 86.393L90.6641 86.4101L90.7769 79.4344C90.9856 79.3236 91.2278 79.2936 91.4572 79.3502C92.8829 79.532 94.6631 84.2981 95.6072 86.3863L101.092 86.4079L99.2363 82.2114C98.545 80.5127 97.664 79.3503 96.5275 78.7031L97.1756 78.1596Z" fill="white"/>
<path fill-rule="evenodd" clip-rule="evenodd" d="M90.7205 72.0172C91.4851 71.886 92.2631 71.852 93.0361 71.9158C93.449 71.9298 93.8496 72.0606 94.1915 72.2931C94.5333 72.5255 94.8025 72.8502 94.9679 73.2295C95.0718 73.4667 95.1231 73.7236 95.1182 73.9826C95.1133 74.2415 95.0525 74.4963 94.9397 74.7294C94.8553 74.9619 94.786 75.1998 94.7323 75.4413L94.6848 75.6752L90.3489 75.8464L90.4633 72.0521L90.7205 72.0172ZM92.9587 72.522C92.3238 72.4659 91.6845 72.4884 91.0551 72.589L90.9777 75.2097L94.1898 75.0823C94.2462 74.8679 94.3087 74.6906 94.3629 74.5327C94.4453 74.3664 94.4913 74.1844 94.498 73.9989C94.5047 73.8133 94.4718 73.6285 94.4016 73.4567C94.2721 73.1815 94.0684 72.9481 93.8134 72.7829C93.5584 72.6177 93.2623 72.5273 92.9587 72.522ZM96.9854 77.9219C97.3967 77.5954 97.7785 77.2333 98.1263 76.8398C99.0166 75.8965 99.5426 74.6666 99.6101 73.3703C99.6306 72.2869 99.268 71.2313 98.5865 70.3899C98.4045 70.1599 98.202 69.947 97.9815 69.7539C96.4152 68.3748 91.8913 68.5266 88.4281 68.6413C87.5233 68.6696 86.6871 68.6973 85.987 68.6951L86.0561 86.0877L90.366 86.1049L90.4766 79.2162L90.7421 79.1187C90.9778 79.0123 91.2421 78.9872 91.4937 79.0472C92.8636 79.2201 94.3479 82.6874 95.3672 85.0704L95.8035 86.0833L100.623 86.1027L98.9537 82.3262C98.6663 81.585 98.2803 80.8861 97.8061 80.2484C97.4203 79.73 96.9347 79.2943 96.3782 78.9669L95.996 78.7508C96.3245 78.476 96.6525 78.1923 96.9854 77.9219V77.9219ZM98.5843 77.2421C98.2135 77.6618 97.8063 78.0478 97.3676 78.3956L97.044 78.6682C97.5194 79.0036 97.9398 79.4111 98.29 79.8761C98.795 80.5562 99.2069 81.3008 99.515 82.0901L101.563 86.7155L95.4081 86.6916L95.3285 86.5121C95.1753 86.1719 94.9978 85.7608 94.8059 85.3109C93.8419 83.0575 92.4399 79.7808 91.4185 79.6534C91.3058 79.6316 91.1901 79.6294 91.0767 79.6467L90.9644 86.7177L85.4517 86.6961C85.4213 80.4889 85.3967 74.2823 85.3781 68.0762L85.6867 68.0828C86.4278 68.0956 87.3718 68.0657 88.4088 68.0308C91.9776 67.9139 96.6375 67.7582 98.3829 69.2946C98.6299 69.5128 98.8577 69.7519 99.0637 70.0093C99.8337 70.9631 100.242 72.1588 100.217 73.3852C100.149 74.8246 99.5695 76.1922 98.5843 77.2421V77.2421Z" fill="white"/>
<path d="M90.7205 72.0172C91.4851 71.886 92.2631 71.852 93.0361 71.9158C93.449 71.9298 93.8496 72.0606 94.1915 72.2931C94.5333 72.5255 94.8025 72.8502 94.9679 73.2295C95.0718 73.4667 95.1231 73.7236 95.1182 73.9826C95.1133 74.2415 95.0525 74.4963 94.9397 74.7294C94.8553 74.9619 94.786 75.1998 94.7323 75.4413L94.6848 75.6752L90.3489 75.8464L90.4633 72.0521L90.7205 72.0172ZM92.9587 72.522C92.3238 72.4659 91.6845 72.4884 91.0551 72.589L90.9777 75.2097L94.1898 75.0823C94.2462 74.8679 94.3087 74.6906 94.3629 74.5327C94.4453 74.3664 94.4913 74.1844 94.498 73.9989C94.5047 73.8133 94.4718 73.6285 94.4016 73.4567C94.2721 73.1815 94.0684 72.9481 93.8134 72.7829C93.5584 72.6177 93.2623 72.5273 92.9587 72.522V72.522ZM96.9854 77.9219C97.3967 77.5954 97.7785 77.2333 98.1263 76.8398C99.0166 75.8965 99.5426 74.6666 99.6101 73.3703C99.6306 72.2869 99.268 71.2313 98.5865 70.3899C98.4045 70.1599 98.202 69.947 97.9815 69.7539C96.4152 68.3748 91.8913 68.5266 88.4281 68.6413C87.5233 68.6696 86.6871 68.6973 85.987 68.6951L86.0561 86.0877L90.366 86.1049L90.4766 79.2162L90.7421 79.1187C90.9778 79.0123 91.2421 78.9872 91.4937 79.0472C92.8636 79.2201 94.3479 82.6874 95.3672 85.0704L95.8035 86.0833L100.623 86.1027L98.9537 82.3262C98.6663 81.585 98.2803 80.8861 97.8061 80.2484C97.4203 79.73 96.9347 79.2943 96.3782 78.9669L95.996 78.7508C96.3245 78.476 96.6525 78.1923 96.9854 77.9219V77.9219ZM98.5843 77.2421C98.2135 77.6618 97.8063 78.0478 97.3676 78.3956L97.044 78.6682C97.5194 79.0036 97.9398 79.4111 98.29 79.8761C98.795 80.5562 99.2069 81.3008 99.515 82.0901L101.563 86.7155L95.4081 86.6916L95.3285 86.5121C95.1753 86.1719 94.9978 85.7608 94.8059 85.3109C93.8419 83.0575 92.4399 79.7808 91.4185 79.6534C91.3058 79.6316 91.1901 79.6294 91.0767 79.6467L90.9644 86.7177L85.4517 86.6961C85.4213 80.4889 85.3967 74.2823 85.3781 68.0762L85.6867 68.0828C86.4278 68.0956 87.3718 68.0657 88.4088 68.0308C91.9776 67.9139 96.6375 67.7582 98.3829 69.2946C98.6299 69.5128 98.8577 69.7519 99.0637 70.0093C99.8337 70.9631 100.242 72.1588 100.217 73.3852C100.149 74.8246 99.5695 76.1922 98.5843 77.2421V77.2421Z" stroke="white" stroke-width="0.2398" stroke-miterlimit="10.433"/>
<path fill-rule="evenodd" clip-rule="evenodd" d="M22.9813 72.2816C25.0204 72.0716 25.5541 72.1647 26.7382 73.0889C26.8914 75.9113 25.5065 75.606 22.6744 75.5844C22.6744 75.0281 22.6246 74.2142 22.6611 73.6928L22.9813 72.2816ZM28.5289 78.6428C28.6963 78.4607 28.8847 78.2992 29.0903 78.1619C30.1814 77.3136 31.3024 76.6515 31.6658 74.673C33.195 66.3664 22.2663 68.5805 17.7075 68.3705L17.7766 86.4169L22.6031 86.3172L22.7026 79.1553C25.6337 79.7831 26.1807 84.2439 27.6347 86.3842L32.8626 86.3776C32.7199 85.1874 30.432 79.8546 28.5289 78.6428Z" fill="white"/>
<path fill-rule="evenodd" clip-rule="evenodd" d="M22.9509 71.9784C23.7096 71.857 24.4823 71.8512 25.2427 71.9612C25.8667 72.1162 26.4441 72.42 26.9257 72.8466L27.034 72.9331L27.0423 73.0716C27.1657 75.3139 26.4119 75.807 24.8197 75.894C24.4115 75.9178 23.9381 75.9089 23.4044 75.9001L22.3697 75.8873V75.5843C22.3697 75.3416 22.363 75.1405 22.3592 74.9305C22.3459 74.4872 22.3332 74.0174 22.3569 73.6711C22.4527 73.1078 22.5781 72.5501 22.7325 72L22.9509 71.9784ZM25.1177 72.5585C24.4915 72.4681 23.8555 72.4696 23.2297 72.563L22.9636 73.7337C22.9421 74.0606 22.9553 74.5 22.9659 74.9133L22.9769 75.2834L23.4133 75.2901C23.9293 75.2984 24.3894 75.3073 24.787 75.2857C25.9385 75.2231 26.4982 74.8612 26.4395 73.2445C26.058 72.9163 25.6055 72.6814 25.1177 72.5586V72.5585ZM28.3083 78.4327C28.4205 78.3044 28.5466 78.189 28.6843 78.0886L29.2352 77.6687C30.1665 76.9606 31.0608 76.2813 31.3655 74.6191C32.0673 70.8121 29.9829 69.3488 27.1635 68.8297C25.0053 68.5357 22.8223 68.4688 20.6502 68.6302C19.6758 68.6673 18.7727 68.7039 18.0122 68.6867L18.0791 86.1048L22.3027 86.0184L22.4023 78.779L22.7651 78.8565C24.9187 79.3175 25.8411 81.5986 26.6945 83.709C26.9951 84.5291 27.3651 85.3219 27.8006 86.0788L32.4909 86.0749C32.0218 84.5832 31.3954 83.1457 30.6222 81.787C29.9093 80.5143 29.0969 79.3674 28.3647 78.902L28.0516 78.7008L28.3083 78.4327ZM29.0493 78.5795L29.004 78.6144C29.877 79.4443 30.6038 80.416 31.1537 81.4884C32.0426 83.0071 32.7201 84.6405 33.1673 86.3431L33.2082 86.6827L27.4748 86.6894L27.3836 86.5553C26.8789 85.7273 26.4585 84.8506 26.1287 83.9384C25.3876 82.1056 24.5929 80.1359 23.0007 79.558L22.9034 86.6157L17.4747 86.726C17.4464 80.5016 17.4227 74.277 17.4033 68.0523L17.7208 68.0678C18.5199 68.1022 19.5265 68.0634 20.6287 68.0202C22.8441 67.8548 25.0707 67.9251 27.2713 68.2302C30.4237 68.8097 32.7525 70.4525 31.9661 74.7293C31.6182 76.6231 30.6311 77.3739 29.6024 78.1557L29.0493 78.5795Z" fill="white"/>
<path d="M22.9509 71.9784C23.7096 71.857 24.4823 71.8512 25.2427 71.9612C25.8667 72.1162 26.4441 72.42 26.9257 72.8466L27.034 72.9331L27.0423 73.0716C27.1657 75.3139 26.4119 75.807 24.8197 75.894C24.4115 75.9178 23.9381 75.9089 23.4044 75.9001L22.3697 75.8873V75.5843C22.3697 75.3416 22.363 75.1405 22.3592 74.9305C22.3459 74.4872 22.3332 74.0174 22.3569 73.6711C22.4527 73.1078 22.5781 72.5501 22.7325 72L22.9509 71.9784ZM25.1177 72.5585C24.4915 72.4681 23.8555 72.4696 23.2296 72.563L22.9636 73.7337C22.9421 74.0606 22.9553 74.5 22.9659 74.9133L22.9769 75.2834L23.4133 75.2901C23.9293 75.2984 24.3894 75.3073 24.787 75.2857C25.9385 75.2231 26.4982 74.8612 26.4395 73.2445C26.058 72.9163 25.6055 72.6814 25.1177 72.5586V72.5585ZM28.3083 78.4327C28.4205 78.3044 28.5466 78.189 28.6843 78.0886L29.2352 77.6687C30.1665 76.9606 31.0608 76.2813 31.3655 74.6191C32.0673 70.8121 29.9829 69.3488 27.1635 68.8297C25.0053 68.5357 22.8223 68.4688 20.6502 68.6302C19.6758 68.6673 18.7727 68.7039 18.0122 68.6867L18.0791 86.1048L22.3027 86.0184L22.4023 78.779L22.7651 78.8565C24.9187 79.3175 25.8411 81.5986 26.6945 83.709C26.9951 84.5291 27.3651 85.3219 27.8006 86.0788L32.4909 86.0749C32.0218 84.5832 31.3954 83.1457 30.6222 81.787C29.9093 80.5143 29.0969 79.3674 28.3647 78.902L28.0516 78.7008L28.3083 78.4327ZM29.0493 78.5795L29.004 78.6144C29.877 79.4443 30.6038 80.416 31.1537 81.4884C32.0426 83.0071 32.7201 84.6405 33.1673 86.3431L33.2082 86.6827L27.4748 86.6894L27.3836 86.5553C26.8789 85.7273 26.4585 84.8506 26.1287 83.9385C25.3876 82.1056 24.5929 80.1359 23.0007 79.558L22.9034 86.6157L17.4747 86.726C17.4464 80.5016 17.4227 74.277 17.4033 68.0523L17.7208 68.0678C18.5199 68.1022 19.5265 68.0634 20.6287 68.0202C22.8441 67.8548 25.0707 67.9251 27.2713 68.2302C30.4237 68.8097 32.7525 70.4525 31.9661 74.7293C31.6182 76.6231 30.6311 77.3739 29.6024 78.1557L29.0493 78.5795Z" stroke="white" stroke-width="0.2398" stroke-miterlimit="10.433"/>
<path fill-rule="evenodd" clip-rule="evenodd" d="M65.542 71.8139C66.5605 70.7255 67.5168 69.5802 68.4062 68.3837L61.7398 68.3621C61.366 69.3771 59.2467 72.0632 58.4 73.2251L57.0107 74.7011L56.8078 68.4396L52.0593 68.5072L52.0809 86.3908L56.9543 86.4556C57.201 81.1138 56.3648 82.4408 59.3999 79.24L62.6817 86.4295L68.56 86.4057C68.4278 85.5508 63.6838 77.0082 62.7829 75.2424L65.542 71.8139Z" fill="white"/>
<path fill-rule="evenodd" clip-rule="evenodd" d="M65.3147 71.6084L65.3451 71.5763C66.1681 70.6582 67.1232 69.5955 67.8123 68.6846L61.9406 68.6697C61.1572 70.0193 60.2741 71.3083 59.2987 72.5259C58.5045 73.5524 57.6465 74.5276 56.7298 75.4459L56.5136 68.7494L52.3635 68.8082L52.3856 86.09L56.6651 86.146C56.7038 85.1442 56.7082 84.3995 56.7082 83.8172C56.6621 83.1501 56.7198 82.4798 56.8791 81.8303C57.0882 81.2115 57.5245 80.7571 58.5079 79.7332L59.4884 78.7032L62.8758 86.1243L68.1363 86.1027C67.6137 84.8583 65.5398 81.0192 64.0316 78.225C63.347 76.9584 62.7785 75.9046 62.5108 75.381L62.4223 75.2032C63.3813 74.0086 64.3364 72.7858 65.3147 71.6084ZM65.797 71.9852L63.144 75.2791C63.4244 75.8182 63.9498 76.7922 64.5675 77.9347C66.2958 81.1361 68.7563 85.6961 68.8603 86.3582L68.9139 86.7089L62.4848 86.7349L59.3092 79.7764L58.9464 80.1576C58.0306 81.1101 57.6219 81.5339 57.4559 82.0254C57.3214 82.6125 57.2748 83.2164 57.3177 83.8172C57.3155 84.4666 57.3132 85.3171 57.259 86.469L57.2464 86.7632L51.7784 86.6917C51.7695 80.5299 51.7624 74.3682 51.7568 68.2065L57.1037 68.1305L57.2895 73.9587L58.1666 73.0285L58.8126 72.1603C59.7865 70.8637 61.1713 69.022 61.4522 68.258L61.528 68.0591L68.9853 68.0807L68.6567 68.5566C67.7696 69.7532 66.8148 70.898 65.797 71.9852Z" fill="white"/>
<path d="M65.3147 71.6084L65.3451 71.5763C66.1681 70.6582 67.1232 69.5955 67.8123 68.6846L61.9406 68.6697C61.1572 70.0193 60.2741 71.3083 59.2987 72.5259C58.5045 73.5524 57.6465 74.5276 56.7298 75.4459L56.5136 68.7494L52.3635 68.8082L52.3856 86.09L56.6651 86.146C56.7038 85.1442 56.7082 84.3995 56.7082 83.8172C56.6621 83.1501 56.7198 82.4798 56.8791 81.8303C57.0882 81.2115 57.5245 80.7571 58.5079 79.7332L59.4884 78.7032L62.8758 86.1243L68.1363 86.1027C67.6137 84.8583 65.5398 81.0192 64.0316 78.225C63.347 76.9584 62.7784 75.9046 62.5108 75.381L62.4223 75.2032C63.3813 74.0086 64.3364 72.7858 65.3147 71.6084V71.6084ZM65.797 71.9852L63.144 75.2791C63.4244 75.8182 63.9498 76.7922 64.5675 77.9347C66.2958 81.1361 68.7563 85.6961 68.8603 86.3582L68.9139 86.7089L62.4848 86.7349L59.3092 79.7764L58.9464 80.1576C58.0306 81.1101 57.6219 81.5339 57.4559 82.0254C57.3214 82.6125 57.2748 83.2164 57.3177 83.8172C57.3155 84.4666 57.3132 85.3171 57.259 86.469L57.2464 86.7632L51.7784 86.6917C51.7695 80.5299 51.7624 74.3682 51.7568 68.2065L57.1037 68.1305L57.2895 73.9587L58.1666 73.0285L58.8126 72.1603C59.7865 70.8637 61.1713 69.022 61.4522 68.258L61.528 68.0591L68.9853 68.0807L68.6567 68.5566C67.7696 69.7532 66.8148 70.898 65.797 71.9852V71.9852Z" stroke="white" stroke-width="0.2398" stroke-miterlimit="10.433"/>
<path fill-rule="evenodd" clip-rule="evenodd" d="M70.0006 86.3627L83.2002 86.4319L83.2135 82.1163L75.019 82.1989L75.0041 78.8634L82.416 78.8545L82.4353 75.0066L74.9692 75.0282L74.9952 72.4053L83.0166 72.4097L82.9391 68.4576L70.1262 68.4553L70.0006 86.3627Z" fill="white"/>
<path fill-rule="evenodd" clip-rule="evenodd" d="M70.3076 86.0595L82.896 86.1243L82.9088 82.4237L74.7165 82.5057L74.6994 78.5602L82.1135 78.5513L82.129 75.3117L74.6629 75.3333L74.6927 72.102L82.708 72.1042L82.6411 68.7627L70.4287 68.7605L70.3076 86.0595ZM83.198 86.7349L69.6937 86.6656C69.7308 80.495 69.7741 74.3238 69.8237 68.1521C74.2956 68.1521 78.7668 68.1529 83.2373 68.1543L83.328 72.712L75.2955 72.7098L75.2762 74.7228L82.7423 74.6989L82.7185 79.1597L75.311 79.1686L75.3215 81.8912L83.5177 81.8087L83.5027 86.7371L83.198 86.7349Z" fill="white"/>
<path d="M70.3076 86.0595L82.896 86.1243L82.9088 82.4237L74.7165 82.5057L74.6994 78.5602L82.1135 78.5513L82.129 75.3117L74.6629 75.3333L74.6927 72.102L82.708 72.1042L82.6411 68.7627L70.4287 68.7605L70.3076 86.0595ZM83.198 86.7349L69.6937 86.6656C69.7308 80.495 69.7741 74.3238 69.8237 68.1521C74.2956 68.1521 78.7668 68.1529 83.2373 68.1543L83.328 72.712L75.2955 72.7098L75.2762 74.7228L82.7423 74.6989L82.7185 79.1597L75.311 79.1686L75.3215 81.8912L83.5177 81.8087L83.5027 86.7371L83.198 86.7349Z" stroke="white" stroke-width="0.2398" stroke-miterlimit="10.433"/>
<path fill-rule="evenodd" clip-rule="evenodd" d="M20.5291 22.9178L11.3801 22.914L11.2092 22.31L2.34115 22.3638V28.5516L1.08186 29.53L1.10343 63.313L12.8921 63.2155L13.115 33.8739L21.3653 63.1983L31.1515 63.2909L39.7192 33.8844L39.8747 63.3147L46.3884 63.2909L58.0284 23.0109L32.6292 22.9311C32.2487 24.8183 30.6587 31.0842 29.181 36.5639C27.9477 41.1416 26.7813 45.1912 26.4462 45.7364L26.1785 46.1691L25.9235 45.7276C25.053 44.2255 21.5058 27.5171 20.5872 23.1927L20.5291 22.9178ZM26.2305 42.6846C26.9583 42.0375 26.9129 41.2347 27.1983 39.9188C27.3189 39.3714 27.4593 38.7242 27.6712 37.9363L31.8688 21.9876C41.0089 21.9743 50.1486 21.9743 59.2876 21.9876L59.1665 22.3793C57.9852 26.2533 56.8033 30.4193 55.6215 34.5948C54.8052 37.4709 53.9884 40.3515 53.1654 43.1606L47.0604 64.2261H38.9461L38.7254 41.9444L38.6502 41.6197L38.4837 41.9034L31.9141 64.2261H20.9351L20.8422 64.122C20.4058 63.6355 20.0972 62.3755 19.9285 61.6807L19.8467 61.3561L17.4658 52.7165C17.0726 51.2965 16.6943 49.842 16.3166 48.3854C15.7027 46.0262 15.0872 43.6609 14.413 41.4707C14.3118 41.5399 14.2316 41.5876 14.1691 41.6241C14.1345 41.8278 14.081 42.0277 14.0093 42.2214L13.9661 64.2261H0.0664673C0.0946689 51.9608 0.122694 39.6949 0.150535 27.4285C0.150535 27.3659 1.35175 27.4695 1.35175 27.4047C1.35617 25.656 1.34511 23.6581 1.35175 21.9072L21.2398 21.9853L21.2918 22.2297C21.6568 23.9938 22.1236 25.8959 22.5837 27.7836C22.9553 29.3051 23.327 30.8177 23.6422 32.2549C23.8563 33.2201 24.0764 34.1116 24.3075 35.0513C24.4889 35.7893 24.6792 36.5572 24.8777 37.4122C25.0464 38.1441 25.1869 38.8583 25.3185 39.5464C25.5588 40.61 25.8634 41.658 26.2305 42.6846Z" fill="white"/>
<path d="M20.5291 22.9178L11.3801 22.914L11.2092 22.31L2.34115 22.3638V28.5516L1.08186 29.53L1.10343 63.313L12.8921 63.2155L13.115 33.8739L21.3653 63.1983L31.1515 63.2909L39.7192 33.8844L39.8747 63.3147L46.3884 63.2909L58.0284 23.0109L32.6292 22.9311C32.2487 24.8183 30.6587 31.0842 29.181 36.5639C27.9477 41.1416 26.7813 45.1912 26.4462 45.7364L26.1785 46.1691L25.9235 45.7276C25.053 44.2255 21.5058 27.5171 20.5872 23.1927L20.5291 22.9178ZM26.2305 42.6846C26.9583 42.0375 26.9129 41.2347 27.1983 39.9188C27.3189 39.3714 27.4593 38.7242 27.6712 37.9363L31.8688 21.9876C41.0089 21.9743 50.1486 21.9743 59.2876 21.9876L59.1665 22.3793C57.9852 26.2533 56.8033 30.4193 55.6215 34.5948C54.8052 37.4709 53.9884 40.3515 53.1654 43.1606L47.0604 64.2261H38.9461L38.7254 41.9444L38.6502 41.6197L38.4837 41.9034L31.9141 64.2261H20.9351L20.8422 64.122C20.4058 63.6355 20.0972 62.3755 19.9285 61.6807L19.8467 61.3561L17.4658 52.7165C17.0726 51.2965 16.6943 49.842 16.3166 48.3854C15.7027 46.0262 15.0872 43.6609 14.413 41.4707C14.3118 41.5399 14.2316 41.5876 14.1691 41.6241C14.1345 41.8278 14.081 42.0277 14.0093 42.2214L13.9661 64.2261H0.0664673C0.0946689 51.9608 0.122694 39.6949 0.150535 27.4285C0.150535 27.3659 1.35175 27.4695 1.35175 27.4047C1.35617 25.656 1.34511 23.6581 1.35175 21.9072L21.2398 21.9853L21.2918 22.2297C21.6568 23.9938 22.1236 25.8959 22.5837 27.7836C22.9553 29.3051 23.327 30.8177 23.6422 32.2549C23.8563 33.2201 24.0764 34.1116 24.3075 35.0513C24.4889 35.7893 24.6792 36.5572 24.8777 37.4122C25.0464 38.1441 25.1869 38.8583 25.3185 39.5464C25.5588 40.61 25.8634 41.658 26.2305 42.6846Z" stroke="white" stroke-width="0.2398" stroke-miterlimit="10.433"/>
<path fill-rule="evenodd" clip-rule="evenodd" d="M44.9583 68.8142C42.5038 67.6889 39.2763 68.1305 37.3212 69.2647C31.7305 72.5043 31.6785 85.0272 39.8619 86.5099C40.3049 85.3109 41.046 83.1246 40.9852 81.9993C39.8708 82.6509 38.9654 81.0252 38.6696 79.8717C37.2737 74.418 40.3005 71.323 42.7505 72.7187C44.554 73.7448 43.2211 75.13 44.9583 68.8142Z" fill="white"/>
<path fill-rule="evenodd" clip-rule="evenodd" d="M44.5955 68.9899C43.5124 68.5714 42.3504 68.3977 41.1926 68.4813C39.8897 68.5446 38.6179 68.9027 37.4728 69.5285C35.5692 70.6322 34.3315 72.8767 33.8802 75.3788C33.6525 76.6387 33.6277 77.9269 33.8067 79.1947C33.9719 80.4334 34.3715 81.6293 34.9841 82.718C35.4717 83.5949 36.1423 84.3563 36.9502 84.9501C37.7581 85.544 38.6843 85.9564 39.6656 86.1593C39.8708 85.588 40.1191 84.8583 40.3176 84.1441C40.4833 83.5861 40.6004 83.0148 40.6677 82.4365C40.4929 82.4631 40.3144 82.4535 40.1435 82.4081C39.9725 82.3627 39.8126 82.2826 39.6739 82.1728C39.363 81.9295 39.105 81.6252 38.9157 81.2785C38.6767 80.8613 38.4951 80.4136 38.3759 79.9476C37.7122 77.3591 38.0214 75.2708 38.7946 73.9072C39.0339 73.4764 39.3486 73.0922 39.7237 72.7731C40.0624 72.4854 40.4609 72.2768 40.8901 72.1625C41.5725 71.9891 42.2956 72.0935 42.9015 72.4528C43.1848 72.6127 43.4438 72.8124 43.6708 73.0457L43.6945 72.916C43.8134 72.2728 44.0314 71.0699 44.5955 68.9899ZM41.1561 67.8729C42.5002 67.7726 43.8486 68.0006 45.0855 68.5372L45.321 68.6458L45.2519 68.8946C44.6447 71.0998 44.4157 72.3619 44.2951 73.0262C44.2687 73.2645 44.2105 73.4982 44.122 73.721C43.8649 74.1754 43.7183 74.0086 43.4003 73.6496C43.1738 73.3834 42.9035 73.158 42.6012 72.983C42.1312 72.7029 41.5698 72.6204 41.0394 72.7536C40.6982 72.8451 40.3816 73.0115 40.1125 73.2407C39.7944 73.5137 39.5274 73.8413 39.3238 74.2081C38.6198 75.4503 38.3455 77.3784 38.9632 79.7963C39.0704 80.2076 39.2316 80.6028 39.4427 80.9715C39.5896 81.245 39.7903 81.4857 40.0328 81.6791C40.1139 81.7462 40.2089 81.7941 40.311 81.8192C40.4131 81.8444 40.5195 81.8461 40.6224 81.8242C40.6956 81.8035 40.7661 81.7737 40.832 81.7356L41.2617 81.484L41.2877 81.9844C41.273 82.7736 41.1443 83.5565 40.9055 84.3087C40.6677 85.1614 40.3696 86.0141 40.1495 86.6158L40.0605 86.8562L39.8077 86.8108C38.6897 86.6212 37.6284 86.1824 36.7023 85.5269C35.7762 84.8713 35.0089 84.0157 34.457 83.0232C33.8047 81.8673 33.3786 80.5971 33.2016 79.2811C33.0152 77.9485 33.0423 76.5947 33.2818 75.2708C33.7613 72.6041 35.1008 70.1994 37.1681 69.0004C38.3951 68.3271 39.7587 67.9416 41.1561 67.8729Z" fill="white"/>
<path d="M44.5955 68.9899C43.5124 68.5714 42.3504 68.3977 41.1926 68.4813C39.8897 68.5446 38.6179 68.9027 37.4728 69.5285C35.5692 70.6322 34.3315 72.8767 33.8802 75.3788C33.6525 76.6387 33.6277 77.9269 33.8067 79.1947C33.9719 80.4334 34.3715 81.6293 34.9841 82.718C35.4717 83.5949 36.1423 84.3563 36.9502 84.9501C37.7581 85.544 38.6843 85.9564 39.6656 86.1593C39.8708 85.588 40.1191 84.8583 40.3176 84.1441C40.4833 83.5861 40.6004 83.0148 40.6677 82.4365C40.4929 82.4631 40.3144 82.4535 40.1435 82.4081C39.9725 82.3627 39.8126 82.2826 39.6739 82.1728C39.363 81.9295 39.105 81.6252 38.9157 81.2785C38.6767 80.8613 38.4951 80.4136 38.3759 79.9476C37.7122 77.3591 38.0214 75.2708 38.7946 73.9072C39.0339 73.4764 39.3486 73.0922 39.7237 72.7731C40.0624 72.4854 40.4609 72.2768 40.8901 72.1625C41.5725 71.9891 42.2956 72.0935 42.9015 72.4528C43.1848 72.6127 43.4438 72.8124 43.6708 73.0457L43.6945 72.916C43.8134 72.2728 44.0314 71.0699 44.5955 68.9899V68.9899ZM41.1561 67.8729C42.5002 67.7726 43.8486 68.0006 45.0855 68.5372L45.321 68.6458L45.2519 68.8946C44.6447 71.0998 44.4157 72.3619 44.2951 73.0262C44.2687 73.2645 44.2105 73.4982 44.122 73.721C43.8649 74.1754 43.7183 74.0086 43.4003 73.6496C43.1738 73.3834 42.9035 73.158 42.6012 72.983C42.1312 72.7029 41.5698 72.6204 41.0394 72.7536C40.6982 72.8451 40.3816 73.0115 40.1125 73.2407C39.7944 73.5137 39.5274 73.8413 39.3238 74.2081C38.6198 75.4503 38.3455 77.3784 38.9632 79.7963C39.0704 80.2076 39.2316 80.6028 39.4427 80.9715C39.5896 81.245 39.7903 81.4857 40.0328 81.6791C40.1139 81.7462 40.2089 81.7941 40.311 81.8192C40.4131 81.8444 40.5195 81.8461 40.6224 81.8242C40.6956 81.8035 40.7661 81.7737 40.832 81.7356L41.2617 81.484L41.2877 81.9844C41.273 82.7736 41.1443 83.5565 40.9055 84.3087C40.6677 85.1614 40.3696 86.0141 40.1495 86.6158L40.0605 86.8562L39.8077 86.8108C38.6897 86.6212 37.6284 86.1824 36.7023 85.5269C35.7762 84.8713 35.0089 84.0157 34.457 83.0232C33.8047 81.8673 33.3786 80.5971 33.2016 79.2811C33.0152 77.9485 33.0423 76.5947 33.2818 75.2708C33.7613 72.6041 35.1008 70.1994 37.1681 69.0004C38.3951 68.3271 39.7587 67.9416 41.1561 67.8729V67.8729Z" stroke="white" stroke-width="0.2398" stroke-miterlimit="10.433"/>
<path fill-rule="evenodd" clip-rule="evenodd" d="M44.1784 86.3886C49.4584 84.3951 51.1064 78.281 48.339 71.8533L44.1784 86.3886Z" fill="white"/>
<path fill-rule="evenodd" clip-rule="evenodd" d="M44.6944 86.5077L44.2841 86.6745L43.7183 86.8906L48.2809 70.9485L48.6177 71.732C48.7366 72.0068 48.8447 72.2744 48.9418 72.5348C50.0889 75.5821 50.2597 78.5342 49.5336 80.9909C49.1934 82.2161 48.5816 83.3485 47.7437 84.3037C46.9058 85.259 45.8635 86.0124 44.6944 86.5077ZM44.6447 85.8628C45.686 85.3873 46.6108 84.6892 47.3543 83.8176C48.0977 82.9461 48.6419 81.9221 48.9485 80.8175C49.6353 78.4976 49.4733 75.6968 48.3866 72.7924L44.6447 85.8628Z" fill="white"/>
<path d="M44.6944 86.5077L44.2841 86.6745L43.7183 86.8906L48.2809 70.9485L48.6177 71.732C48.7366 72.0068 48.8447 72.2744 48.9418 72.5348C50.0889 75.5821 50.2597 78.5342 49.5336 80.9909C49.1934 82.2161 48.5816 83.3485 47.7437 84.3037C46.9058 85.259 45.8635 86.0124 44.6944 86.5077V86.5077ZM44.6447 85.8628C45.686 85.3873 46.6108 84.6892 47.3543 83.8176C48.0977 82.9461 48.6419 81.9221 48.9485 80.8175C49.6353 78.4976 49.4733 75.6968 48.3866 72.7924L44.6447 85.8628Z" stroke="white" stroke-width="0.2398" stroke-miterlimit="10.433"/>
<path fill-rule="evenodd" clip-rule="evenodd" d="M11.4559 59.5642L12.0758 59.5858L12.104 61.4752L11.3691 61.4818L11.4559 59.5642ZM10.0191 61.4818C10.0191 60.6507 9.90238 60.1332 10.1551 59.5619L10.7253 59.6223C10.7988 60.2475 10.76 60.8808 10.6108 61.4923L10.0191 61.4818ZM8.78135 61.4923C8.598 60.9989 8.54951 60.4655 8.64088 59.947C8.71222 59.5076 8.72494 59.6938 8.78135 59.5708L9.23927 59.573C9.49423 60.049 9.36261 60.3781 9.36427 61.4796L8.78135 61.4923ZM7.27984 61.4646C7.28426 59.404 6.95133 59.6163 7.86718 59.5553C7.891 59.595 7.91206 59.6363 7.93021 59.6789C8.07918 60.2706 8.10347 60.8868 8.00156 61.4884L7.27984 61.4646ZM6.0377 61.499C5.79987 60.8804 5.79987 60.1954 6.0377 59.5769L6.49562 59.5858C6.75721 60.0662 6.66651 59.9254 6.64882 60.5576L6.49341 61.5361L6.0377 61.499ZM4.60089 59.5686L5.19707 59.5664L5.27063 61.1676C5.21864 61.4862 5.22086 61.3627 5.12352 61.5317L4.6656 61.525L4.60089 59.5686ZM3.18177 61.4668C3.11226 60.8366 3.14948 60.1992 3.29183 59.5814L3.74975 59.5769C4.00028 60.0833 3.90128 60.6657 3.89243 61.499L3.18177 61.4668ZM1.92027 61.4818C1.75705 60.858 1.73852 60.2051 1.86608 59.573L2.5054 59.5708L2.5336 61.4923L1.92027 61.4818ZM11.3867 56.1273L12.1212 56.1965L12.0996 58.0987L11.363 58.1097L11.3867 56.1273ZM10.0191 58.1119C9.94805 57.4683 9.99415 56.8171 10.1551 56.1899L10.6108 56.1988L10.7579 57.1961C10.7602 57.5468 10.7751 57.7285 10.7469 58.1053L10.0191 58.1119ZM8.69896 56.1899L9.34933 56.201L9.39689 58.1119L8.64751 58.097L8.69896 56.1899ZM7.33403 56.1965L7.98608 56.201L7.99492 58.1141L7.28868 58.0815L7.33403 56.1965ZM5.96635 56.1943L6.61894 56.1965L6.62946 58.1203L5.91216 58.0859L5.96635 56.1943ZM4.59647 56.1988L5.24906 56.1943L5.26841 58.1225L4.54724 58.0815L4.59647 56.1988ZM3.23154 56.1988L3.8858 56.1899L3.89907 58.1291L3.17735 58.0732L3.23154 56.1988ZM1.85944 56.2093L2.52034 56.1772L2.53802 58.1313L1.81188 58.0748L1.85944 56.2093ZM11.5272 52.8744L11.9829 52.896C12.1266 53.5106 12.166 54.1449 12.0996 54.7726L11.5272 54.7898V52.8744ZM10.1551 54.7898C9.95432 54.1656 9.95432 53.4941 10.1551 52.8699L10.7342 52.9109L10.7364 54.7765L10.1551 54.7898ZM8.65803 54.7637C8.59069 54.133 8.6324 53.4953 8.78135 52.8788L9.23927 52.8849C9.4315 53.5103 9.4315 54.1793 9.23927 54.8047L8.65803 54.7637ZM7.40925 54.7809C7.21182 54.1636 7.21182 53.5 7.40925 52.8827H7.86718C8.08039 53.5041 8.08039 54.179 7.86718 54.8003L7.40925 54.7809ZM6.0377 54.7831C5.85629 54.1627 5.85629 53.5031 6.0377 52.8827L6.49562 52.8788C6.51276 52.9154 6.53875 52.9608 6.5476 52.9869L6.49562 54.8025L6.0377 54.7831ZM4.6656 54.7765C4.4886 54.1599 4.4886 53.5059 4.6656 52.8893L5.12352 52.8788L5.12185 54.8025L4.6656 54.7765ZM3.74975 52.8788C3.77052 52.9138 3.78934 52.9498 3.80616 52.9869L3.90295 53.372C3.90737 53.4218 3.90128 53.757 3.90128 53.8307C3.89907 54.1471 3.89465 54.4629 3.89465 54.792L3.29404 54.7787C3.11189 54.1608 3.11113 53.5033 3.29183 52.8849L3.74975 52.8788ZM1.92027 54.7743C1.80399 54.4203 1.76478 54.0455 1.80525 53.675C1.80967 53.1143 1.63933 52.8699 2.37819 52.8699C2.40168 52.9051 2.42257 52.942 2.44069 52.9802L2.54024 54.8069L1.92027 54.7743ZM5.92543 50.7811C5.86703 50.3646 5.90545 49.9403 6.0377 49.5411L6.64439 49.5478L6.57359 51.4715L5.95751 51.4565L5.92543 50.7811ZM4.60531 51.4482C4.48307 50.8152 4.50367 50.1629 4.6656 49.5389L5.28389 49.5522L5.19319 51.4737L4.60531 51.4482ZM3.23375 51.4654C3.11123 50.8274 3.13182 50.1701 3.29404 49.5411L3.91622 49.5478L3.82994 51.4715L3.23375 51.4654ZM1.86387 51.4499C1.74599 50.8169 1.76523 50.166 1.92027 49.5411L2.54245 49.5478L2.45784 51.4759L1.86387 51.4499ZM11.5272 51.4565C11.3557 50.8349 11.3095 50.1853 11.3912 49.5456L12.1079 49.5649C12.1862 50.1992 12.1437 50.8425 11.9829 51.4609L11.5272 51.4565ZM10.1551 51.4587C10.138 51.42 10.112 51.3723 10.1031 51.3418L10.0191 50.4786C10.0213 50.1733 10.0235 49.868 10.0257 49.5433L10.7386 49.5672C10.8071 50.2018 10.7638 50.8435 10.6108 51.4632L10.1551 51.4587ZM8.78135 51.4482C8.64228 50.8285 8.60289 50.1905 8.66466 49.5583H9.37311C9.44657 50.1989 9.4012 50.8475 9.23927 51.4715L8.78135 51.4482ZM7.40925 51.446C7.26673 50.8262 7.2273 50.1871 7.29256 49.5544L8.00156 49.5583C8.07821 50.1983 8.03261 50.8469 7.86718 51.4698L7.40925 51.446ZM11.421 46.0915L12.0974 46.117L12.0908 47.9958H11.3912L11.421 46.0915ZM10.0517 46.0915L10.7319 46.0998L10.7148 47.998L10.0257 47.9914L10.0517 46.0915ZM8.68623 46.0932L9.3626 46.0998L9.35376 48.0047L8.66024 47.9831L8.68623 46.0932ZM7.31413 46.0954L7.99492 46.102L7.98829 48.0152L7.29035 47.9831L7.31413 46.0954ZM5.947 46.0954L6.62504 46.0915L6.61673 48.0152L5.92764 47.9742L5.947 46.0954ZM4.5749 46.102L5.26011 46.0954L5.2579 48.0219L4.54891 47.9809L4.5749 46.102ZM3.20776 46.1065L3.89907 46.0893L3.89022 48.0175L3.18619 47.9787L3.20776 46.1065ZM1.83566 46.102L2.52255 46.0893L2.51645 48.0175L1.8163 47.9787L1.83566 46.102ZM11.5272 42.7821L11.9829 42.8081C12.1243 43.4258 12.1637 44.0626 12.0996 44.6931L11.3912 44.6864L11.3691 43.2929L11.5272 42.7821ZM10.0279 44.6803C9.95222 44.0474 9.99536 43.4058 10.1551 42.7887L10.6108 42.8059C10.7598 43.4255 10.8015 44.066 10.7342 44.6997L10.0279 44.6803ZM8.65803 44.6781C8.59128 44.0471 8.63299 43.4094 8.78135 42.7926L9.23927 42.7971C9.25853 42.832 9.27516 42.8683 9.28905 42.9056L9.3709 43.7495C9.36869 44.0609 9.36427 44.3706 9.36427 44.7041L8.65803 44.6781ZM7.29256 44.6692C7.21421 44.0426 7.25379 43.4068 7.40925 42.7948L7.86718 42.7904C8.11383 43.3012 7.99935 44.057 7.99935 44.7102L7.29256 44.6692ZM5.91658 44.6692C5.8511 44.0421 5.89205 43.4083 6.0377 42.7948L6.49562 42.7904C6.73564 43.2691 6.63609 43.8448 6.63388 44.7235L5.91658 44.6692ZM4.55775 44.6609C4.49567 44.0363 4.53206 43.4059 4.6656 42.7926L5.27063 42.8081V44.7235L4.55775 44.6609ZM3.18619 44.6565C3.12251 44.0372 3.15818 43.4117 3.29183 42.8037L3.74975 42.7904C3.77303 42.8256 3.79337 42.8627 3.81058 42.9012L3.91179 43.7495C3.91179 44.0675 3.90737 44.3855 3.90516 44.7257L3.18619 44.6565ZM1.8788 42.7887L2.5054 42.7732L2.54024 44.7257L1.80967 44.6587L1.8788 42.7887ZM11.4277 39.5225L12.0974 39.527L12.1018 41.4357L11.389 41.4313L11.4277 39.5225ZM10.06 39.5292L10.7275 39.5419L10.7253 41.449L10.0235 41.4274L10.06 39.5292ZM8.68844 39.527L9.34933 39.5441L9.36427 41.4468L8.64972 41.4401L8.68844 39.527ZM7.31634 39.5203L7.97999 39.5358L7.98829 41.449L7.28205 41.423L7.31634 39.5203ZM5.95309 39.5314L6.61894 39.5292L6.62115 41.4512L5.90607 41.4401L5.95309 39.5314ZM4.57048 39.527H5.25569L5.24685 41.4573L4.54281 41.4274L4.57048 39.527ZM3.21607 39.5336L3.87308 39.5248L3.88138 41.4551L3.17514 41.4252L3.21607 39.5336ZM1.83345 39.5336L2.5054 39.5248V41.4595L1.80967 41.423L1.83345 39.5336ZM11.4149 36.1505L12.0803 36.1893L12.0886 38.0637L11.3674 38.0809L11.4149 36.1505ZM10.0473 36.1593L10.717 36.1832L10.7126 38.0725L10.0086 38.0792L10.0473 36.1593ZM8.6796 36.1593L9.34491 36.1832L9.34933 38.0748L8.64088 38.077L8.6796 36.1593ZM7.30583 36.1593L7.97999 36.1788L7.96893 38.0725L7.27763 38.0615L7.30583 36.1593ZM5.93594 36.1593L6.6101 36.181V38.077L5.91216 38.0681L5.93594 36.1593ZM4.56217 36.1593L5.24685 36.1616L5.23191 38.0897L4.53839 38.0615L4.56217 36.1593ZM3.1945 36.1638L3.87087 36.1699V38.0792L3.17293 38.0615L3.1945 36.1638ZM1.83345 36.1743L2.51203 36.1616L2.50761 38.0875L1.80358 38.0576L1.83345 36.1743ZM11.3995 32.7718L12.0974 32.8112L12.0758 34.6939L11.3912 34.6916L11.3995 32.7718ZM10.0301 32.774L10.7253 32.8067L10.7015 34.6916L10.0235 34.7005L10.0301 32.774ZM8.66024 32.7785L9.3626 32.8045L9.33882 34.6983L8.64751 34.6939L8.66024 32.7785ZM7.29698 32.7807L7.99492 32.8001L7.96451 34.6961L7.28647 34.6856L7.29698 32.7807ZM5.92543 32.7873L6.62946 32.7785L6.59904 34.7049L5.91658 34.6877L5.92543 32.7873ZM4.55554 32.7829L5.26178 32.7851L5.22085 34.6983L4.55112 34.6811L4.55554 32.7829ZM3.20334 32.7956L3.88359 32.8001L3.8576 34.7094L3.17956 34.67L3.20334 32.7956ZM1.81852 32.794L2.51867 32.7956L2.48825 34.7005L1.80967 34.6856L1.81852 32.794ZM11.4515 29.4629L12.0758 29.4801L12.0996 31.3695L11.3713 31.385L11.4515 29.4629ZM10.0777 29.4585L10.7082 29.4801L10.7236 31.3761L10.0086 31.3783L10.0777 29.4585ZM8.71222 29.4629L9.3427 29.4735L9.36648 31.385L8.64309 31.3717L8.71222 29.4629ZM7.34233 29.4607L7.97335 29.4779L7.99271 31.3955L7.27541 31.3695L7.34233 29.4607ZM5.92764 31.3545C5.85446 30.7281 5.89172 30.0936 6.0377 29.4801L6.49562 29.4757C6.65821 30.1004 6.70137 30.7503 6.62283 31.3911L5.92764 31.3545ZM4.55554 31.3434C4.46857 30.7212 4.50598 30.0878 4.6656 29.4801H5.12352L5.25127 31.3977L4.55554 31.3434ZM3.22712 29.4735L3.8775 29.4629L3.88359 31.385L3.15357 31.3612L3.22712 29.4735ZM1.86387 29.4823L2.50761 29.4585L2.52476 31.4066L1.80358 31.3434L1.86387 29.4823ZM10.0279 26.4976C10.0948 26.0194 10.0777 26.3009 10.1551 26.1214L10.7319 26.1795C10.7319 26.5386 10.7452 26.9109 10.7408 27.2661C10.7342 27.7836 10.7795 27.6838 10.6108 28.0539L10.0146 28.0301L10.0279 26.4976ZM8.78135 28.0495C8.55983 27.428 8.55983 26.7489 8.78135 26.1275L9.23927 26.1469C9.42926 26.7668 9.42926 27.4296 9.23927 28.0495H8.78135ZM7.27984 28.0213C7.21321 27.3895 7.25701 26.7508 7.40925 26.1341L7.86718 26.1408L7.99713 27.1015C7.99713 27.4112 7.99271 27.7099 7.99713 28.0368L7.27984 28.0213ZM6.0377 28.0346C5.84325 27.4176 5.84325 26.7555 6.0377 26.1386L6.49562 26.1363C6.51505 26.1725 6.53169 26.2101 6.54539 26.2488C6.55369 26.2771 6.58189 26.3291 6.59074 26.3657L6.62725 28.0429L6.0377 28.0346ZM4.55333 26.4998C4.60974 26.0366 4.5926 26.3159 4.6656 26.1408L5.12352 26.1319C5.30767 26.7546 5.34832 27.411 5.24242 28.0517L4.54281 28.0085L4.55333 26.4998ZM3.29404 28.039C3.10406 27.4183 3.10406 26.7548 3.29404 26.1341L3.89686 26.143L3.89907 28.0451L3.29404 28.039ZM10.0213 22.6757L10.7364 22.71L10.6888 24.5994H10.0451L10.0169 23.8985L10.0213 22.6757ZM8.65582 22.6801L9.3626 22.7039L9.32776 24.5977L8.66687 24.5955L8.65582 22.6801ZM7.28868 22.684L7.99713 22.7017L7.94957 24.6016L7.29698 24.5977L7.28868 22.684ZM5.92321 22.6928H6.62946L6.58411 24.6038L5.93373 24.591L5.92321 22.6928ZM4.55112 22.6906L5.26399 22.6928L5.21476 24.6038L4.55554 24.591L4.55112 22.6906ZM3.17956 22.6928L3.90128 22.6906L3.84487 24.606L3.18786 24.5911L3.17956 22.6928ZM8.70117 19.3773L9.34491 19.3967L9.36039 21.301L8.64309 21.286L8.70117 19.3773ZM7.33182 19.3812L7.97556 19.3856L7.99935 21.2988L7.2732 21.2772L7.33182 19.3812ZM5.96193 19.3812L6.60789 19.3856L6.63167 21.3121L5.89943 21.2988L5.96193 19.3812ZM4.58595 19.3812L5.24021 19.3834L5.2579 21.3032L4.53618 21.2772L4.58595 19.3812ZM8.66687 16.12L9.36427 16.1438L9.32776 18.042L8.66466 18.0243L8.66687 16.12ZM7.28647 16.1283L7.99935 16.1371L7.94957 18.0376L7.29477 18.042L7.28647 16.1283ZM5.921 16.1244L6.62946 16.1393L6.59074 18.0437L5.92543 18.0309L5.921 16.1244ZM4.54724 16.1305L5.26399 16.1393L5.21864 18.0459L4.56659 18.0243L4.54502 17.3295L4.54281 16.7195L4.54724 16.1305ZM0.664864 28.2639C0.721275 30.7788 0.468529 62.0314 0.764408 63.2238L13.1731 63.2199L13.1753 28.2833L11.8037 28.2789L11.7971 21.7797L10.4665 21.747L10.4316 14.8905L8.17632 14.8755L8.17411 9.99698C8.16969 8.35418 7.80467 9.86955 7.47229 8.92764C7.47229 8.11428 7.47008 7.29814 7.47229 6.48422C7.48059 4.69237 7.59287 5.40878 7.19965 4.54278C6.70744 3.45404 7.39874 0.866003 6.95133 0C6.62946 0.446022 6.8739 2.93045 6.82412 3.90228C6.74172 5.48025 6.49341 3.8502 6.37893 5.25254C6.29708 6.28088 6.39165 7.83724 6.39165 8.92764C6.28602 9.34097 5.77611 9.13541 5.68762 9.53822L5.69425 14.8755L3.4041 14.8777L3.39747 21.7382L2.07347 21.7731L1.99992 28.2617L0.664864 28.2639Z" fill="white"/>
</g>
<defs>
<clipPath id="clip0">
<rect width="102" height="87" fill="white"/>
</clipPath>
</defs>
</svg>
